<svg width="32" height="32" viewBox="0 0 32 32" fill="none" xmlns="http://www.w3.org/2000/svg">
<path d="M28.4275 4.98251C28.4061 4.61555 28.2506 4.26923 27.9907 4.0093C27.7308 3.74938 27.3845 3.59394 27.0175 3.57251C22.0675 3.28126 17.6938 3.86501 14.0175 5.30626C10.5 6.68501 7.78876 8.82252 6.17376 11.4875C3.97126 15.1263 3.96626 19.5438 6.11751 23.7613L3.93876 25.94C3.79923 26.0795 3.68855 26.2452 3.61304 26.4275C3.53752 26.6098 3.49866 26.8052 3.49866 27.0025C3.49866 27.1998 3.53752 27.3952 3.61304 27.5775C3.68855 27.7598 3.79923 27.9255 3.93876 28.065C4.22055 28.3468 4.60274 28.5051 5.00126 28.5051C5.19858 28.5051 5.39398 28.4663 5.57628 28.3907C5.75858 28.3152 5.92423 28.2045 6.06376 28.065L8.24251 25.8863C10.335 26.9538 12.4775 27.4925 14.5488 27.4925C16.6532 27.4991 18.7184 26.9237 20.5163 25.83C23.1813 24.215 25.3188 21.5025 26.6975 17.9863C28.135 14.3075 28.7188 9.93251 28.4275 4.98251ZM18.9575 23.26C16.4463 24.7813 13.5 24.8963 10.4925 23.625L21.06 13.0575C21.1995 12.918 21.3102 12.7523 21.3857 12.57C21.4612 12.3877 21.5001 12.1923 21.5001 11.995C21.5001 11.7977 21.4612 11.6023 21.3857 11.42C21.3102 11.2377 21.1995 11.072 21.06 10.9325C20.9205 10.793 20.7548 10.6823 20.5725 10.6068C20.3902 10.5313 20.1948 10.4924 19.9975 10.4924C19.8002 10.4924 19.6048 10.5313 19.4225 10.6068C19.2402 10.6823 19.0745 10.793 18.935 10.9325L8.37501 21.5075C7.10751 18.5075 7.22251 15.5538 8.75001 13.0425C11.3638 8.72626 17.5675 6.32751 25.5 6.51126C25.6725 14.4413 23.2738 20.6463 18.9575 23.26Z" fill="#474747"/>
</svg>
