<svg width="182" height="40" viewBox="0 0 182 40" fill="none" xmlns="http://www.w3.org/2000/svg">
<path d="M2.656 31.5V9.1H7.84V27.276H19.072V31.5H2.656ZM21.6165 31.5V14.284H26.6085V31.5H21.6165ZM24.1125 11.884C23.1952 11.884 22.4485 11.6173 21.8725 11.084C21.2965 10.5507 21.0085 9.88933 21.0085 9.1C21.0085 8.31067 21.2965 7.64933 21.8725 7.116C22.4485 6.58267 23.1952 6.316 24.1125 6.316C25.0298 6.316 25.7765 6.572 26.3525 7.084C26.9285 7.57467 27.2165 8.21467 27.2165 9.004C27.2165 9.836 26.9285 10.5293 26.3525 11.084C25.7978 11.6173 25.0512 11.884 24.1125 11.884ZM31.8495 31.5V13.9C31.8495 11.9587 32.4255 10.412 33.5775 9.26C34.7295 8.08666 36.3722 7.5 38.5055 7.5C39.2308 7.5 39.9242 7.57467 40.5855 7.724C41.2682 7.87333 41.8442 8.108 42.3135 8.428L41.0015 12.044C40.7242 11.852 40.4148 11.7027 40.0735 11.596C39.7322 11.4893 39.3695 11.436 38.9855 11.436C38.2602 11.436 37.6948 11.6493 37.2895 12.076C36.9055 12.4813 36.7135 13.1 36.7135 13.932V15.532L36.8415 17.676V31.5H31.8495ZM29.1935 18.508V14.668H41.1295V18.508H29.1935ZM51.9418 31.756C49.9791 31.756 48.2511 31.372 46.7578 30.604C45.2858 29.836 44.1444 28.7907 43.3338 27.468C42.5231 26.124 42.1178 24.5987 42.1178 22.892C42.1178 21.164 42.5124 19.6387 43.3018 18.316C44.1124 16.972 45.2111 15.9267 46.5978 15.18C47.9844 14.412 49.5524 14.028 51.3018 14.028C52.9871 14.028 54.5018 14.3907 55.8458 15.116C57.2111 15.82 58.2884 16.844 59.0778 18.188C59.8671 19.5107 60.2618 21.1 60.2618 22.956C60.2618 23.148 60.2511 23.372 60.2298 23.628C60.2084 23.8627 60.1871 24.0867 60.1658 24.3H46.1818V21.388H57.5417L55.6218 22.252C55.6218 21.356 55.4404 20.5773 55.0778 19.916C54.7151 19.2547 54.2138 18.7427 53.5738 18.38C52.9338 17.996 52.1871 17.804 51.3338 17.804C50.4804 17.804 49.7231 17.996 49.0618 18.38C48.4218 18.7427 47.9204 19.2653 47.5578 19.948C47.1951 20.6093 47.0138 21.3987 47.0138 22.316V23.084C47.0138 24.0227 47.2164 24.8547 47.6218 25.58C48.0484 26.284 48.6351 26.828 49.3818 27.212C50.1498 27.5747 51.0458 27.756 52.0698 27.756C52.9871 27.756 53.7871 27.6173 54.4698 27.34C55.1738 27.0627 55.8138 26.6467 56.3898 26.092L59.0458 28.972C58.2564 29.868 57.2644 30.5613 56.0698 31.052C54.8751 31.5213 53.4991 31.756 51.9418 31.756ZM68.7373 19.18H79.4893V23.34H68.7373V19.18ZM69.1213 31.5H63.9373V9.1H80.8653V13.26H69.1213V31.5ZM84.0228 31.5V7.756H89.0148V31.5H84.0228ZM101.84 31.756C100.005 31.756 98.3731 31.372 96.9438 30.604C95.5358 29.836 94.4158 28.7907 93.5838 27.468C92.7731 26.124 92.3678 24.5987 92.3678 22.892C92.3678 21.164 92.7731 19.6387 93.5838 18.316C94.4158 16.972 95.5358 15.9267 96.9438 15.18C98.3731 14.412 100.005 14.028 101.84 14.028C103.653 14.028 105.274 14.412 106.704 15.18C108.133 15.9267 109.253 16.9613 110.064 18.284C110.874 19.6067 111.28 21.1427 111.28 22.892C111.28 24.5987 110.874 26.124 110.064 27.468C109.253 28.7907 108.133 29.836 106.704 30.604C105.274 31.372 103.653 31.756 101.84 31.756ZM101.84 27.66C102.672 27.66 103.418 27.468 104.08 27.084C104.741 26.7 105.264 26.156 105.648 25.452C106.032 24.7267 106.224 23.8733 106.224 22.892C106.224 21.8893 106.032 21.036 105.648 20.332C105.264 19.628 104.741 19.084 104.08 18.7C103.418 18.316 102.672 18.124 101.84 18.124C101.008 18.124 100.261 18.316 99.5998 18.7C98.9384 19.084 98.4051 19.628 97.9998 20.332C97.6158 21.036 97.4238 21.8893 97.4238 22.892C97.4238 23.8733 97.6158 24.7267 97.9998 25.452C98.4051 26.156 98.9384 26.7 99.5998 27.084C100.261 27.468 101.008 27.66 101.84 27.66ZM118.084 31.5L111.876 14.284H116.58L121.732 29.1H119.492L124.868 14.284H129.092L134.308 29.1H132.068L137.38 14.284H141.796L135.556 31.5H130.724L126.148 18.796H127.62L122.884 31.5H118.084Z" fill="#474747"/>
<path d="M178.428 8.98251C178.406 8.61555 178.251 8.26923 177.991 8.0093C177.731 7.74938 177.384 7.59394 177.018 7.57251C172.068 7.28126 167.694 7.86501 164.018 9.30626C160.5 10.685 157.789 12.8225 156.174 15.4875C153.971 19.1263 153.966 23.5438 156.118 27.7613L153.939 29.94C153.799 30.0795 153.689 30.2452 153.613 30.4275C153.538 30.6098 153.499 30.8052 153.499 31.0025C153.499 31.1998 153.538 31.3952 153.613 31.5775C153.689 31.7598 153.799 31.9255 153.939 32.065C154.221 32.3468 154.603 32.5051 155.001 32.5051C155.199 32.5051 155.394 32.4663 155.576 32.3907C155.759 32.3152 155.924 32.2045 156.064 32.065L158.243 29.8863C160.335 30.9538 162.478 31.4925 164.549 31.4925C166.653 31.4991 168.718 30.9237 170.516 29.83C173.181 28.215 175.319 25.5025 176.698 21.9863C178.135 18.3075 178.719 13.9325 178.428 8.98251ZM168.958 27.26C166.446 28.7813 163.5 28.8963 160.493 27.625L171.06 17.0575C171.2 16.918 171.31 16.7523 171.386 16.57C171.461 16.3877 171.5 16.1923 171.5 15.995C171.5 15.7977 171.461 15.6023 171.386 15.42C171.31 15.2377 171.2 15.072 171.06 14.9325C170.92 14.793 170.755 14.6823 170.573 14.6068C170.39 14.5313 170.195 14.4924 169.998 14.4924C169.8 14.4924 169.605 14.5313 169.422 14.6068C169.24 14.6823 169.075 14.793 168.935 14.9325L158.375 25.5075C157.108 22.5075 157.223 19.5538 158.75 17.0425C161.364 12.7263 167.568 10.3275 175.5 10.5113C175.673 18.4413 173.274 24.6463 168.958 27.26Z" fill="#474747"/>
</svg>
