<svg width="182" height="39" viewBox="0 0 182 39" fill="none" xmlns="http://www.w3.org/2000/svg">
<path d="M2.656 31V8.6H7.84V26.776H19.072V31H2.656ZM21.6165 31V13.784H26.6085V31H21.6165ZM24.1125 11.384C23.1952 11.384 22.4485 11.1173 21.8725 10.584C21.2965 10.0507 21.0085 9.38933 21.0085 8.6C21.0085 7.81067 21.2965 7.14933 21.8725 6.616C22.4485 6.08267 23.1952 5.816 24.1125 5.816C25.0298 5.816 25.7765 6.072 26.3525 6.584C26.9285 7.07467 27.2165 7.71467 27.2165 8.504C27.2165 9.336 26.9285 10.0293 26.3525 10.584C25.7978 11.1173 25.0512 11.384 24.1125 11.384ZM31.8495 31V13.4C31.8495 11.4587 32.4255 9.912 33.5775 8.76C34.7295 7.58666 36.3722 7 38.5055 7C39.2308 7 39.9242 7.07467 40.5855 7.224C41.2682 7.37333 41.8442 7.608 42.3135 7.928L41.0015 11.544C40.7242 11.352 40.4148 11.2027 40.0735 11.096C39.7322 10.9893 39.3695 10.936 38.9855 10.936C38.2602 10.936 37.6948 11.1493 37.2895 11.576C36.9055 11.9813 36.7135 12.6 36.7135 13.432V15.032L36.8415 17.176V31H31.8495ZM29.1935 18.008V14.168H41.1295V18.008H29.1935ZM51.9418 31.256C49.9791 31.256 48.2511 30.872 46.7578 30.104C45.2858 29.336 44.1444 28.2907 43.3338 26.968C42.5231 25.624 42.1178 24.0987 42.1178 22.392C42.1178 20.664 42.5124 19.1387 43.3018 17.816C44.1124 16.472 45.2111 15.4267 46.5978 14.68C47.9844 13.912 49.5524 13.528 51.3018 13.528C52.9871 13.528 54.5018 13.8907 55.8458 14.616C57.2111 15.32 58.2884 16.344 59.0778 17.688C59.8671 19.0107 60.2618 20.6 60.2618 22.456C60.2618 22.648 60.2511 22.872 60.2298 23.128C60.2084 23.3627 60.1871 23.5867 60.1658 23.8H46.1818V20.888H57.5417L55.6218 21.752C55.6218 20.856 55.4404 20.0773 55.0778 19.416C54.7151 18.7547 54.2138 18.2427 53.5738 17.88C52.9338 17.496 52.1871 17.304 51.3338 17.304C50.4804 17.304 49.7231 17.496 49.0618 17.88C48.4218 18.2427 47.9204 18.7653 47.5578 19.448C47.1951 20.1093 47.0138 20.8987 47.0138 21.816V22.584C47.0138 23.5227 47.2164 24.3547 47.6218 25.08C48.0484 25.784 48.6351 26.328 49.3818 26.712C50.1498 27.0747 51.0458 27.256 52.0698 27.256C52.9871 27.256 53.7871 27.1173 54.4698 26.84C55.1738 26.5627 55.8138 26.1467 56.3898 25.592L59.0458 28.472C58.2564 29.368 57.2644 30.0613 56.0698 30.552C54.8751 31.0213 53.4991 31.256 51.9418 31.256ZM68.7373 18.68H79.4893V22.84H68.7373V18.68ZM69.1213 31H63.9373V8.6H80.8653V12.76H69.1213V31ZM84.0228 31V7.256H89.0148V31H84.0228ZM101.84 31.256C100.005 31.256 98.3731 30.872 96.9438 30.104C95.5358 29.336 94.4158 28.2907 93.5838 26.968C92.7731 25.624 92.3678 24.0987 92.3678 22.392C92.3678 20.664 92.7731 19.1387 93.5838 17.816C94.4158 16.472 95.5358 15.4267 96.9438 14.68C98.3731 13.912 100.005 13.528 101.84 13.528C103.653 13.528 105.274 13.912 106.704 14.68C108.133 15.4267 109.253 16.4613 110.064 17.784C110.874 19.1067 111.28 20.6427 111.28 22.392C111.28 24.0987 110.874 25.624 110.064 26.968C109.253 28.2907 108.133 29.336 106.704 30.104C105.274 30.872 103.653 31.256 101.84 31.256ZM101.84 27.16C102.672 27.16 103.418 26.968 104.08 26.584C104.741 26.2 105.264 25.656 105.648 24.952C106.032 24.2267 106.224 23.3733 106.224 22.392C106.224 21.3893 106.032 20.536 105.648 19.832C105.264 19.128 104.741 18.584 104.08 18.2C103.418 17.816 102.672 17.624 101.84 17.624C101.008 17.624 100.261 17.816 99.5998 18.2C98.9384 18.584 98.4051 19.128 97.9998 19.832C97.6158 20.536 97.4238 21.3893 97.4238 22.392C97.4238 23.3733 97.6158 24.2267 97.9998 24.952C98.4051 25.656 98.9384 26.2 99.5998 26.584C100.261 26.968 101.008 27.16 101.84 27.16ZM118.084 31L111.876 13.784H116.58L121.732 28.6H119.492L124.868 13.784H129.092L134.308 28.6H132.068L137.38 13.784H141.796L135.556 31H130.724L126.148 18.296H127.62L122.884 31H118.084Z" fill="#FFFCFA"/>
<path d="M178.428 8.48251C178.406 8.11555 178.251 7.76923 177.991 7.5093C177.731 7.24938 177.384 7.09394 177.018 7.07251C172.068 6.78126 167.694 7.36501 164.018 8.80626C160.5 10.185 157.789 12.3225 156.174 14.9875C153.971 18.6263 153.966 23.0438 156.118 27.2613L153.939 29.44C153.799 29.5795 153.689 29.7452 153.613 29.9275C153.538 30.1098 153.499 30.3052 153.499 30.5025C153.499 30.6998 153.538 30.8952 153.613 31.0775C153.689 31.2598 153.799 31.4255 153.939 31.565C154.221 31.8468 154.603 32.0051 155.001 32.0051C155.199 32.0051 155.394 31.9663 155.576 31.8907C155.759 31.8152 155.924 31.7045 156.064 31.565L158.243 29.3863C160.335 30.4538 162.478 30.9925 164.549 30.9925C166.653 30.9991 168.718 30.4237 170.516 29.33C173.181 27.715 175.319 25.0025 176.698 21.4863C178.135 17.8075 178.719 13.4325 178.428 8.48251ZM168.958 26.76C166.446 28.2813 163.5 28.3963 160.493 27.125L171.06 16.5575C171.2 16.418 171.31 16.2523 171.386 16.07C171.461 15.8877 171.5 15.6923 171.5 15.495C171.5 15.2977 171.461 15.1023 171.386 14.92C171.31 14.7377 171.2 14.572 171.06 14.4325C170.92 14.293 170.755 14.1823 170.573 14.1068C170.39 14.0313 170.195 13.9924 169.998 13.9924C169.8 13.9924 169.605 14.0313 169.422 14.1068C169.24 14.1823 169.075 14.293 168.935 14.4325L158.375 25.0075C157.108 22.0075 157.223 19.0538 158.75 16.5425C161.364 12.2263 167.568 9.82751 175.5 10.0113C175.673 17.9413 173.274 24.1463 168.958 26.76Z" fill="#FFFCFA"/>
</svg>
